<mxfile host="65bd71144e">
    <diagram id="rHbC_DlL13k5QsOF5Wav" name="Page-1">
        <mxGraphModel dx="1032" dy="498" grid="1" gridSize="10" guides="1" tooltips="1" connect="1" arrows="1" fold="1" page="1" pageScale="1" pageWidth="850" pageHeight="1100" math="0" shadow="0">
            <root>
                <mxCell id="0"/>
                <mxCell id="1" parent="0"/>
                <mxCell id="2" value="" style="rounded=0;whiteSpace=wrap;html=1;" vertex="1" parent="1">
                    <mxGeometry x="250" y="10" width="380" height="500" as="geometry"/>
                </mxCell>
                <mxCell id="3" value="" style="rounded=0;whiteSpace=wrap;html=1;" vertex="1" parent="1">
                    <mxGeometry x="260" y="20" width="360" height="30" as="geometry"/>
                </mxCell>
                <mxCell id="6" value="" style="line;strokeWidth=2;html=1;" vertex="1" parent="1">
                    <mxGeometry x="580" y="20" width="30" height="10" as="geometry"/>
                </mxCell>
                <mxCell id="7" value="" style="line;strokeWidth=2;html=1;" vertex="1" parent="1">
                    <mxGeometry x="580" y="30" width="30" height="10" as="geometry"/>
                </mxCell>
                <mxCell id="8" value="" style="line;strokeWidth=2;html=1;" vertex="1" parent="1">
                    <mxGeometry x="580" y="40" width="30" height="10" as="geometry"/>
                </mxCell>
                <mxCell id="9" value="HEADER" style="rounded=0;whiteSpace=wrap;html=1;" vertex="1" parent="1">
                    <mxGeometry x="365" y="25" width="120" height="20" as="geometry"/>
                </mxCell>
                <mxCell id="10" value="LEFT COLUMN INFO" style="rounded=0;whiteSpace=wrap;html=1;" vertex="1" parent="1">
                    <mxGeometry x="260" y="60" width="360" height="70" as="geometry"/>
                </mxCell>
                <mxCell id="11" value="MAIN VIEW INFO" style="rounded=0;whiteSpace=wrap;html=1;" vertex="1" parent="1">
                    <mxGeometry x="260" y="140" width="360" height="230" as="geometry"/>
                </mxCell>
                <mxCell id="12" value="RIGHT COLUMN INFO" style="rounded=0;whiteSpace=wrap;html=1;" vertex="1" parent="1">
                    <mxGeometry x="260" y="380" width="360" height="70" as="geometry"/>
                </mxCell>
                <mxCell id="13" value="FOOTER" style="rounded=0;whiteSpace=wrap;html=1;" vertex="1" parent="1">
                    <mxGeometry x="260" y="460" width="360" height="30" as="geometry"/>
                </mxCell>
                <mxCell id="14" value="LINK ONE&lt;br&gt;LINK TWO&lt;br&gt;LINK THREE&lt;br&gt;LINK FOUR&lt;br&gt;" style="rounded=0;whiteSpace=wrap;html=1;" vertex="1" parent="1">
                    <mxGeometry x="680" y="80" width="120" height="70" as="geometry"/>
                </mxCell>
                <mxCell id="15" value="" style="endArrow=none;html=1;entryX=0.75;entryY=0.5;entryDx=0;entryDy=0;entryPerimeter=0;" edge="1" parent="1" target="7">
                    <mxGeometry width="50" height="50" relative="1" as="geometry">
                        <mxPoint x="680" y="80" as="sourcePoint"/>
                        <mxPoint x="730" y="30" as="targetPoint"/>
                    </mxGeometry>
                </mxCell>
            </root>
        </mxGraphModel>
    </diagram>
</mxfile>